<?xml version="1.0" encoding="UTF-8" standalone="no"?>
<!DOCTYPE svg PUBLIC "-//W3C//DTD SVG 1.1//EN" "http://www.w3.org/Graphics/SVG/1.1/DTD/svg11.dtd">
<svg width="100%" height="100%" viewBox="0 0 3780 4134" version="1.1" xmlns="http://www.w3.org/2000/svg" xmlns:xlink="http://www.w3.org/1999/xlink" xml:space="preserve" xmlns:serif="http://www.serif.com/" style="fill-rule:evenodd;clip-rule:evenodd;stroke-linecap:square;stroke-miterlimit:1.5;">
    <g transform="matrix(0.905218,-0.905218,0.905218,0.905218,-4377.61,3191.97)">
        <path d="M2265.72,3035.65C2264.09,3035.74 2262.45,3035.79 2260.8,3035.79C2214.97,3035.79 2177.76,2998.58 2177.76,2952.76C2177.76,2906.93 2214.97,2869.72 2260.8,2869.72C2262.45,2869.72 2264.09,2869.77 2265.72,2869.87C2303.48,2554.16 2554.16,2303.48 2869.87,2265.72C2869.77,2264.09 2869.72,2262.45 2869.72,2260.8C2869.72,2214.97 2906.93,2177.76 2952.76,2177.76C2998.58,2177.76 3035.79,2214.97 3035.79,2260.8C3035.79,2262.45 3035.74,2264.09 3035.65,2265.72C3351.35,2303.48 3602.03,2554.16 3639.79,2869.87C3641.42,2869.77 3643.06,2869.72 3644.72,2869.72C3690.54,2869.72 3727.75,2906.93 3727.75,2952.76C3727.75,2998.58 3690.54,3035.79 3644.72,3035.79C3643.06,3035.79 3641.42,3035.74 3639.79,3035.65C3602.03,3351.35 3351.35,3602.03 3035.65,3639.79C3035.74,3641.42 3035.79,3643.06 3035.79,3644.72C3035.79,3690.54 2998.58,3727.75 2952.76,3727.75C2906.93,3727.75 2869.72,3690.54 2869.72,3644.72C2869.72,3643.06 2869.77,3641.42 2869.87,3639.79C2554.16,3602.03 2303.48,3351.35 2265.72,3035.65Z" style="fill:rgb(147,149,152);stroke:rgb(35,31,32);stroke-width:3.25px;"/>
    </g>
    <g transform="matrix(0.5,0.866025,-0.866025,0.5,3314.5,-3484.02)">
        <path d="M2939.82,4375.98L2520.44,4133.86L2520.44,2952.76L2939.82,2710.63C2930.82,2695.03 2925.67,2676.93 2925.67,2657.65C2925.67,2598.98 2973.3,2551.35 3031.97,2551.35C3071.21,2551.35 3105.52,2572.66 3123.93,2604.33L3543.31,2362.2L4566.17,2952.76L4566.17,3437.01C4584.18,3437.02 4602.42,3441.61 4619.13,3451.25C4669.94,3480.58 4687.37,3545.65 4658.04,3596.46C4638.41,3630.44 4602.81,3649.49 4566.17,3649.61L4566.17,4133.86L3543.31,4724.41L3123.93,4482.28C3114.92,4497.88 3101.82,4511.38 3085.12,4521.02C3034.31,4550.36 2969.25,4532.92 2939.91,4482.12C2920.29,4448.13 2921.6,4407.77 2939.82,4375.98Z" style="fill:rgb(147,149,152);stroke:black;stroke-width:4.17px;"/>
    </g>
</svg>
