<?xml version="1.0" encoding="UTF-8" standalone="no"?>
<!DOCTYPE svg PUBLIC "-//W3C//DTD SVG 1.1//EN" "http://www.w3.org/Graphics/SVG/1.1/DTD/svg11.dtd">
<svg width="100%" height="100%" viewBox="0 0 3780 4134" version="1.1" xmlns="http://www.w3.org/2000/svg" xmlns:xlink="http://www.w3.org/1999/xlink" xml:space="preserve" xmlns:serif="http://www.serif.com/" style="fill-rule:evenodd;clip-rule:evenodd;stroke-linecap:square;stroke-miterlimit:1.5;">
    <g transform="matrix(2.83277e-16,-1,1,2.83277e-16,-467.621,4601.3)">
        <g id="Top">
            <path d="M2846.46,885.827C2846.46,944.495 2894.09,992.126 2952.76,992.126L2952.76,1364.82L3011.81,1364.17C3011.81,1331.58 3038.27,1305.12 3070.87,1305.12C3103.46,1305.12 3129.92,1331.58 3129.92,1364.17L3129.92,1600.39C3129.92,1628.16 3110.72,1651.47 3084.88,1657.77C3080.39,1658.87 3075.7,1659.45 3070.87,1659.45C3063.86,1659.45 3057.13,1658.23 3050.89,1655.98C3028.11,1647.78 3011.81,1625.98 3011.81,1600.39L2952.76,1600.39L2952.76,2067.1C2725.99,2067.1 2499.23,2153.53 2326.38,2326.38C2153.53,2499.23 2067.1,2725.99 2067.1,2952.76L1600.39,2952.76L1600.39,2893.7C1632.99,2893.7 1659.45,2867.24 1659.45,2834.65C1659.45,2802.05 1632.99,2775.59 1600.39,2775.59L1364.17,2775.59C1331.58,2775.59 1305.12,2802.05 1305.12,2834.65C1305.12,2867.24 1331.58,2893.7 1364.17,2893.7L1364.17,2952.76L992.126,2952.76C992.126,3011.42 944.495,3059.06 885.827,3059.06L696.85,3059.06C638.182,3059.06 590.551,3011.42 590.551,2952.76L472.441,2952.76L472.441,1376.79L1376.79,472.441L2952.76,472.441L2952.76,590.551C2894.09,590.551 2846.46,638.182 2846.46,696.85L2846.46,885.827Z" style="fill:rgb(211,199,146);stroke:rgb(35,31,32);stroke-width:4.17px;"/>
        </g>
    </g>
</svg>
