<?xml version="1.0" encoding="UTF-8" standalone="no"?>
<!DOCTYPE svg PUBLIC "-//W3C//DTD SVG 1.1//EN" "http://www.w3.org/Graphics/SVG/1.1/DTD/svg11.dtd">
<svg width="100%" height="100%" viewBox="0 0 3780 4134" version="1.1" xmlns="http://www.w3.org/2000/svg" xmlns:xlink="http://www.w3.org/1999/xlink" xml:space="preserve" xmlns:serif="http://www.serif.com/" style="fill-rule:evenodd;clip-rule:evenodd;stroke-linejoin:round;stroke-miterlimit:2;">
    <g id="Helpers">
        <g transform="matrix(1.64367,0,0,1.76776,-5244.71,-326.826)">
            <path d="M4661.4,382.581L5023.23,382.581L5023.23,540.204L4913.3,540.204L4913.3,504.44L4914.57,504.44C4933.7,504.44 4949.23,489.999 4949.23,472.212C4949.23,454.424 4933.7,439.983 4914.57,439.983L4770.85,439.983C4751.72,439.983 4736.19,454.424 4736.19,472.212C4736.19,489.999 4751.72,504.44 4770.85,504.44L4772.12,504.44L4772.12,540.204L4661.4,540.204L4661.4,382.581Z" style="fill:rgb(212,198,145);stroke:black;stroke-width:2.44px;"/>
        </g>
        <g transform="matrix(-0.826045,0.476917,-0.476917,-0.826045,9121.91,2157.97)">
            <path d="M5015.76,4247.92L5448.49,4497.76L5384.39,4608.78C5384.39,4608.78 5276.57,4546.53 5276.57,4546.53C5276.57,4546.53 5247.78,4596.4 5247.78,4596.4C5276.96,4614.58 5286.69,4652.83 5269.37,4682.83C5251.68,4713.47 5212.44,4723.98 5181.81,4706.29L4967.33,4582.47C4936.7,4564.78 4926.18,4525.54 4943.87,4494.91C4961.19,4464.9 4999.18,4454.2 5029.52,4470.39L5058.31,4420.52L4951.66,4358.94L5015.76,4247.92Z" style="fill:rgb(212,198,145);stroke:black;stroke-width:4.37px;"/>
        </g>
        <g transform="matrix(1.64367,0,0,1.76776,-5244.71,586.531)">
            <path d="M4661.4,382.581L5023.23,382.581L5023.23,540.204L4913.3,540.204L4913.3,504.44L4914.57,504.44C4933.7,504.44 4949.23,489.999 4949.23,472.212C4949.23,454.424 4933.7,439.983 4914.57,439.983L4770.85,439.983C4751.72,439.983 4736.19,454.424 4736.19,472.212C4736.19,489.999 4751.72,504.44 4770.85,504.44L4772.12,504.44L4772.12,540.204L4661.4,540.204L4661.4,382.581Z" style="fill:rgb(212,198,145);stroke:black;stroke-width:2.44px;"/>
        </g>
        <g transform="matrix(-0.826045,0.476917,-0.476917,-0.826045,9121.91,3071.33)">
            <path d="M5015.76,4247.92L5448.49,4497.76L5384.39,4608.78C5384.39,4608.78 5276.57,4546.53 5276.57,4546.53C5276.57,4546.53 5247.78,4596.4 5247.78,4596.4C5276.96,4614.58 5286.69,4652.83 5269.37,4682.83C5251.68,4713.47 5212.44,4723.98 5181.81,4706.29L4967.33,4582.47C4936.7,4564.78 4926.18,4525.54 4943.87,4494.91C4961.19,4464.9 4999.18,4454.2 5029.52,4470.39L5058.31,4420.52L4951.66,4358.94L5015.76,4247.92Z" style="fill:rgb(212,198,145);stroke:black;stroke-width:4.37px;"/>
        </g>
    </g>
</svg>
