<?xml version="1.0" encoding="UTF-8" standalone="no"?>
<!DOCTYPE svg PUBLIC "-//W3C//DTD SVG 1.1//EN" "http://www.w3.org/Graphics/SVG/1.1/DTD/svg11.dtd">
<svg width="100%" height="100%" viewBox="0 0 3780 4134" version="1.1" xmlns="http://www.w3.org/2000/svg" xmlns:xlink="http://www.w3.org/1999/xlink" xml:space="preserve" xmlns:serif="http://www.serif.com/" style="fill-rule:evenodd;clip-rule:evenodd;stroke-linejoin:round;stroke-miterlimit:2;">
    <g id="Holes">
        <g transform="matrix(-0.538737,-0.538737,0.538737,-0.538737,848.624,5845.02)">
            <circle cx="2375.9" cy="2576.66" r="104.641" style="fill:rgb(147,149,152);"/>
            <path d="M2375.9,2466.55C2436.67,2466.55 2486.01,2515.89 2486.01,2576.66C2486.01,2637.43 2436.67,2686.77 2375.9,2686.77C2315.12,2686.77 2265.79,2637.43 2265.79,2576.66C2265.79,2515.89 2315.12,2466.55 2375.9,2466.55ZM2375.9,2472.02C2318.14,2472.02 2271.26,2518.91 2271.26,2576.66C2271.26,2634.41 2318.14,2681.3 2375.9,2681.3C2433.65,2681.3 2480.54,2634.41 2480.54,2576.66C2480.54,2518.91 2433.65,2472.02 2375.9,2472.02Z" style="fill:rgb(35,31,32);"/>
        </g>
        <g transform="matrix(-0.761889,6.43701e-17,1.57675e-16,-0.761889,4295.3,5773.09)">
            <circle cx="2375.9" cy="2576.66" r="104.641" style="fill:rgb(147,149,152);"/>
            <path d="M2375.9,2466.55C2436.67,2466.55 2486.01,2515.89 2486.01,2576.66C2486.01,2637.43 2436.67,2686.77 2375.9,2686.77C2315.12,2686.77 2265.79,2637.43 2265.79,2576.66C2265.79,2515.89 2315.12,2466.55 2375.9,2466.55ZM2375.9,2472.02C2318.14,2472.02 2271.26,2518.91 2271.26,2576.66C2271.26,2634.41 2318.14,2681.3 2375.9,2681.3C2433.65,2681.3 2480.54,2634.41 2480.54,2576.66C2480.54,2518.91 2433.65,2472.02 2375.9,2472.02Z" style="fill:rgb(35,31,32);"/>
        </g>
        <g transform="matrix(-0.538737,-0.538737,0.538737,-0.538737,998.954,5694.69)">
            <circle cx="2375.9" cy="2576.66" r="104.641" style="fill:rgb(147,149,152);"/>
            <path d="M2375.9,2466.55C2436.67,2466.55 2486.01,2515.89 2486.01,2576.66C2486.01,2637.43 2436.67,2686.77 2375.9,2686.77C2315.12,2686.77 2265.79,2637.43 2265.79,2576.66C2265.79,2515.89 2315.12,2466.55 2375.9,2466.55ZM2375.9,2472.02C2318.14,2472.02 2271.26,2518.91 2271.26,2576.66C2271.26,2634.41 2318.14,2681.3 2375.9,2681.3C2433.65,2681.3 2480.54,2634.41 2480.54,2576.66C2480.54,2518.91 2433.65,2472.02 2375.9,2472.02Z" style="fill:rgb(35,31,32);"/>
        </g>
        <g transform="matrix(-0.538737,-0.538737,0.538737,-0.538737,1149.28,5544.36)">
            <circle cx="2375.9" cy="2576.66" r="104.641" style="fill:rgb(147,149,152);"/>
            <path d="M2375.9,2466.55C2436.67,2466.55 2486.01,2515.89 2486.01,2576.66C2486.01,2637.43 2436.67,2686.77 2375.9,2686.77C2315.12,2686.77 2265.79,2637.43 2265.79,2576.66C2265.79,2515.89 2315.12,2466.55 2375.9,2466.55ZM2375.9,2472.02C2318.14,2472.02 2271.26,2518.91 2271.26,2576.66C2271.26,2634.41 2318.14,2681.3 2375.9,2681.3C2433.65,2681.3 2480.54,2634.41 2480.54,2576.66C2480.54,2518.91 2433.65,2472.02 2375.9,2472.02Z" style="fill:rgb(35,31,32);"/>
        </g>
        <g transform="matrix(-0.538737,-0.538737,0.538737,-0.538737,1299.61,5394.03)">
            <circle cx="2375.9" cy="2576.66" r="104.641" style="fill:rgb(147,149,152);"/>
            <path d="M2375.9,2466.55C2436.67,2466.55 2486.01,2515.89 2486.01,2576.66C2486.01,2637.43 2436.67,2686.77 2375.9,2686.77C2315.12,2686.77 2265.79,2637.43 2265.79,2576.66C2265.79,2515.89 2315.12,2466.55 2375.9,2466.55ZM2375.9,2472.02C2318.14,2472.02 2271.26,2518.91 2271.26,2576.66C2271.26,2634.41 2318.14,2681.3 2375.9,2681.3C2433.65,2681.3 2480.54,2634.41 2480.54,2576.66C2480.54,2518.91 2433.65,2472.02 2375.9,2472.02Z" style="fill:rgb(35,31,32);"/>
        </g>
        <g transform="matrix(-0.538737,-0.538737,0.538737,-0.538737,1449.94,5243.7)">
            <circle cx="2375.9" cy="2576.66" r="104.641" style="fill:rgb(147,149,152);"/>
            <path d="M2375.9,2466.55C2436.67,2466.55 2486.01,2515.89 2486.01,2576.66C2486.01,2637.43 2436.67,2686.77 2375.9,2686.77C2315.12,2686.77 2265.79,2637.43 2265.79,2576.66C2265.79,2515.89 2315.12,2466.55 2375.9,2466.55ZM2375.9,2472.02C2318.14,2472.02 2271.26,2518.91 2271.26,2576.66C2271.26,2634.41 2318.14,2681.3 2375.9,2681.3C2433.65,2681.3 2480.54,2634.41 2480.54,2576.66C2480.54,2518.91 2433.65,2472.02 2375.9,2472.02Z" style="fill:rgb(35,31,32);"/>
        </g>
        <g transform="matrix(-0.538737,-0.538737,0.538737,-0.538737,773.459,6070.51)">
            <circle cx="2375.9" cy="2576.66" r="104.641" style="fill:rgb(147,149,152);"/>
            <path d="M2375.9,2466.55C2436.67,2466.55 2486.01,2515.89 2486.01,2576.66C2486.01,2637.43 2436.67,2686.77 2375.9,2686.77C2315.12,2686.77 2265.79,2637.43 2265.79,2576.66C2265.79,2515.89 2315.12,2466.55 2375.9,2466.55ZM2375.9,2472.02C2318.14,2472.02 2271.26,2518.91 2271.26,2576.66C2271.26,2634.41 2318.14,2681.3 2375.9,2681.3C2433.65,2681.3 2480.54,2634.41 2480.54,2576.66C2480.54,2518.91 2433.65,2472.02 2375.9,2472.02Z" style="fill:rgb(35,31,32);"/>
        </g>
        <g transform="matrix(-0.538737,-0.538737,0.538737,-0.538737,623.13,6220.84)">
            <circle cx="2375.9" cy="2576.66" r="104.641" style="fill:rgb(147,149,152);"/>
            <path d="M2375.9,2466.55C2436.67,2466.55 2486.01,2515.89 2486.01,2576.66C2486.01,2637.43 2436.67,2686.77 2375.9,2686.77C2315.12,2686.77 2265.79,2637.43 2265.79,2576.66C2265.79,2515.89 2315.12,2466.55 2375.9,2466.55ZM2375.9,2472.02C2318.14,2472.02 2271.26,2518.91 2271.26,2576.66C2271.26,2634.41 2318.14,2681.3 2375.9,2681.3C2433.65,2681.3 2480.54,2634.41 2480.54,2576.66C2480.54,2518.91 2433.65,2472.02 2375.9,2472.02Z" style="fill:rgb(35,31,32);"/>
        </g>
        <g transform="matrix(-0.538737,-0.538737,0.538737,-0.538737,623.13,5920.18)">
            <circle cx="2375.9" cy="2576.66" r="104.641" style="fill:rgb(147,149,152);"/>
            <path d="M2375.9,2466.55C2436.67,2466.55 2486.01,2515.89 2486.01,2576.66C2486.01,2637.43 2436.67,2686.77 2375.9,2686.77C2315.12,2686.77 2265.79,2637.43 2265.79,2576.66C2265.79,2515.89 2315.12,2466.55 2375.9,2466.55ZM2375.9,2472.02C2318.14,2472.02 2271.26,2518.91 2271.26,2576.66C2271.26,2634.41 2318.14,2681.3 2375.9,2681.3C2433.65,2681.3 2480.54,2634.41 2480.54,2576.66C2480.54,2518.91 2433.65,2472.02 2375.9,2472.02Z" style="fill:rgb(35,31,32);"/>
        </g>
        <g transform="matrix(-0.538737,-0.538737,0.538737,-0.538737,472.8,6070.51)">
            <circle cx="2375.9" cy="2576.66" r="104.641" style="fill:rgb(147,149,152);"/>
            <path d="M2375.9,2466.55C2436.67,2466.55 2486.01,2515.89 2486.01,2576.66C2486.01,2637.43 2436.67,2686.77 2375.9,2686.77C2315.12,2686.77 2265.79,2637.43 2265.79,2576.66C2265.79,2515.89 2315.12,2466.55 2375.9,2466.55ZM2375.9,2472.02C2318.14,2472.02 2271.26,2518.91 2271.26,2576.66C2271.26,2634.41 2318.14,2681.3 2375.9,2681.3C2433.65,2681.3 2480.54,2634.41 2480.54,2576.66C2480.54,2518.91 2433.65,2472.02 2375.9,2472.02Z" style="fill:rgb(35,31,32);"/>
        </g>
        <g transform="matrix(-0.0746781,-0.75822,0.75822,-0.0746781,-1442.12,3854.27)">
            <circle cx="2375.9" cy="2576.66" r="104.641" style="fill:rgb(147,149,152);"/>
            <path d="M2375.9,2466.55C2436.67,2466.55 2486.01,2515.89 2486.01,2576.66C2486.01,2637.43 2436.67,2686.77 2375.9,2686.77C2315.12,2686.77 2265.79,2637.43 2265.79,2576.66C2265.79,2515.89 2315.12,2466.55 2375.9,2466.55ZM2375.9,2472.02C2318.14,2472.02 2271.26,2518.91 2271.26,2576.66C2271.26,2634.41 2318.14,2681.3 2375.9,2681.3C2433.65,2681.3 2480.54,2634.41 2480.54,2576.66C2480.54,2518.91 2433.65,2472.02 2375.9,2472.02Z" style="fill:rgb(35,31,32);"/>
        </g>
        <g transform="matrix(-0.588948,-0.483337,0.483337,-0.588948,1267.83,5985.22)">
            <circle cx="2375.9" cy="2576.66" r="104.641" style="fill:rgb(147,149,152);"/>
            <path d="M2375.9,2466.55C2436.67,2466.55 2486.01,2515.89 2486.01,2576.66C2486.01,2637.43 2436.67,2686.77 2375.9,2686.77C2315.12,2686.77 2265.79,2637.43 2265.79,2576.66C2265.79,2515.89 2315.12,2466.55 2375.9,2466.55ZM2375.9,2472.02C2318.14,2472.02 2271.26,2518.91 2271.26,2576.66C2271.26,2634.41 2318.14,2681.3 2375.9,2681.3C2433.65,2681.3 2480.54,2634.41 2480.54,2576.66C2480.54,2518.91 2433.65,2472.02 2375.9,2472.02Z" style="fill:rgb(35,31,32);"/>
        </g>
        <g transform="matrix(-0.148637,-0.747249,0.747249,-0.148637,-1207.01,4228.59)">
            <circle cx="2375.9" cy="2576.66" r="104.641" style="fill:rgb(147,149,152);"/>
            <path d="M2375.9,2466.55C2436.67,2466.55 2486.01,2515.89 2486.01,2576.66C2486.01,2637.43 2436.67,2686.77 2375.9,2686.77C2315.12,2686.77 2265.79,2637.43 2265.79,2576.66C2265.79,2515.89 2315.12,2466.55 2375.9,2466.55ZM2375.9,2472.02C2318.14,2472.02 2271.26,2518.91 2271.26,2576.66C2271.26,2634.41 2318.14,2681.3 2375.9,2681.3C2433.65,2681.3 2480.54,2634.41 2480.54,2576.66C2480.54,2518.91 2433.65,2472.02 2375.9,2472.02Z" style="fill:rgb(35,31,32);"/>
        </g>
        <g transform="matrix(-0.633487,-0.423283,0.423283,-0.633487,1698.76,6083.65)">
            <circle cx="2375.9" cy="2576.66" r="104.641" style="fill:rgb(147,149,152);"/>
            <path d="M2375.9,2466.55C2436.67,2466.55 2486.01,2515.89 2486.01,2576.66C2486.01,2637.43 2436.67,2686.77 2375.9,2686.77C2315.12,2686.77 2265.79,2637.43 2265.79,2576.66C2265.79,2515.89 2315.12,2466.55 2375.9,2466.55ZM2375.9,2472.02C2318.14,2472.02 2271.26,2518.91 2271.26,2576.66C2271.26,2634.41 2318.14,2681.3 2375.9,2681.3C2433.65,2681.3 2480.54,2634.41 2480.54,2576.66C2480.54,2518.91 2433.65,2472.02 2375.9,2472.02Z" style="fill:rgb(35,31,32);"/>
        </g>
        <g transform="matrix(-0.221165,-0.729082,0.729082,-0.221165,-936.343,4578.06)">
            <circle cx="2375.9" cy="2576.66" r="104.641" style="fill:rgb(147,149,152);"/>
            <path d="M2375.9,2466.55C2436.67,2466.55 2486.01,2515.89 2486.01,2576.66C2486.01,2637.43 2436.67,2686.77 2375.9,2686.77C2315.12,2686.77 2265.79,2637.43 2265.79,2576.66C2265.79,2515.89 2315.12,2466.55 2375.9,2466.55ZM2375.9,2472.02C2318.14,2472.02 2271.26,2518.91 2271.26,2576.66C2271.26,2634.41 2318.14,2681.3 2375.9,2681.3C2433.65,2681.3 2480.54,2634.41 2480.54,2576.66C2480.54,2518.91 2433.65,2472.02 2375.9,2472.02Z" style="fill:rgb(35,31,32);"/>
        </g>
        <g transform="matrix(-0.671926,-0.359152,0.359152,-0.671926,2137.26,6139.37)">
            <circle cx="2375.9" cy="2576.66" r="104.641" style="fill:rgb(147,149,152);"/>
            <path d="M2375.9,2466.55C2436.67,2466.55 2486.01,2515.89 2486.01,2576.66C2486.01,2637.43 2436.67,2686.77 2375.9,2686.77C2315.12,2686.77 2265.79,2637.43 2265.79,2576.66C2265.79,2515.89 2315.12,2466.55 2375.9,2466.55ZM2375.9,2472.02C2318.14,2472.02 2271.26,2518.91 2271.26,2576.66C2271.26,2634.41 2318.14,2681.3 2375.9,2681.3C2433.65,2681.3 2480.54,2634.41 2480.54,2576.66C2480.54,2518.91 2433.65,2472.02 2375.9,2472.02Z" style="fill:rgb(35,31,32);"/>
        </g>
        <g transform="matrix(-0.291562,-0.703893,0.703893,-0.291562,-632.725,4899.32)">
            <circle cx="2375.9" cy="2576.66" r="104.641" style="fill:rgb(147,149,152);"/>
            <path d="M2375.9,2466.55C2436.67,2466.55 2486.01,2515.89 2486.01,2576.66C2486.01,2637.43 2436.67,2686.77 2375.9,2686.77C2315.12,2686.77 2265.79,2637.43 2265.79,2576.66C2265.79,2515.89 2315.12,2466.55 2375.9,2466.55ZM2375.9,2472.02C2318.14,2472.02 2271.26,2518.91 2271.26,2576.66C2271.26,2634.41 2318.14,2681.3 2375.9,2681.3C2433.65,2681.3 2480.54,2634.41 2480.54,2576.66C2480.54,2518.91 2433.65,2472.02 2375.9,2472.02Z" style="fill:rgb(35,31,32);"/>
        </g>
        <g transform="matrix(-0.703893,-0.291562,0.291562,-0.703893,2579.12,6151.85)">
            <circle cx="2375.9" cy="2576.66" r="104.641" style="fill:rgb(147,149,152);"/>
            <path d="M2375.9,2466.55C2436.67,2466.55 2486.01,2515.89 2486.01,2576.66C2486.01,2637.43 2436.67,2686.77 2375.9,2686.77C2315.12,2686.77 2265.79,2637.43 2265.79,2576.66C2265.79,2515.89 2315.12,2466.55 2375.9,2466.55ZM2375.9,2472.02C2318.14,2472.02 2271.26,2518.91 2271.26,2576.66C2271.26,2634.41 2318.14,2681.3 2375.9,2681.3C2433.65,2681.3 2480.54,2634.41 2480.54,2576.66C2480.54,2518.91 2433.65,2472.02 2375.9,2472.02Z" style="fill:rgb(35,31,32);"/>
        </g>
        <g transform="matrix(-0.359152,-0.671926,0.671926,-0.359152,-299.08,5189.27)">
            <circle cx="2375.9" cy="2576.66" r="104.641" style="fill:rgb(147,149,152);"/>
            <path d="M2375.9,2466.55C2436.67,2466.55 2486.01,2515.89 2486.01,2576.66C2486.01,2637.43 2436.67,2686.77 2375.9,2686.77C2315.12,2686.77 2265.79,2637.43 2265.79,2576.66C2265.79,2515.89 2315.12,2466.55 2375.9,2466.55ZM2375.9,2472.02C2318.14,2472.02 2271.26,2518.91 2271.26,2576.66C2271.26,2634.41 2318.14,2681.3 2375.9,2681.3C2433.65,2681.3 2480.54,2634.41 2480.54,2576.66C2480.54,2518.91 2433.65,2472.02 2375.9,2472.02Z" style="fill:rgb(35,31,32);"/>
        </g>
        <g transform="matrix(-0.729082,-0.221165,0.221165,-0.729082,3020.07,6120.95)">
            <circle cx="2375.9" cy="2576.66" r="104.641" style="fill:rgb(147,149,152);"/>
            <path d="M2375.9,2466.55C2436.67,2466.55 2486.01,2515.89 2486.01,2576.66C2486.01,2637.43 2436.67,2686.77 2375.9,2686.77C2315.12,2686.77 2265.79,2637.43 2265.79,2576.66C2265.79,2515.89 2315.12,2466.55 2375.9,2466.55ZM2375.9,2472.02C2318.14,2472.02 2271.26,2518.91 2271.26,2576.66C2271.26,2634.41 2318.14,2681.3 2375.9,2681.3C2433.65,2681.3 2480.54,2634.41 2480.54,2576.66C2480.54,2518.91 2433.65,2472.02 2375.9,2472.02Z" style="fill:rgb(35,31,32);"/>
        </g>
        <g transform="matrix(-0.423283,-0.633487,0.633487,-0.423283,61.3777,5445.12)">
            <circle cx="2375.9" cy="2576.66" r="104.641" style="fill:rgb(147,149,152);"/>
            <path d="M2375.9,2466.55C2436.67,2466.55 2486.01,2515.89 2486.01,2576.66C2486.01,2637.43 2436.67,2686.77 2375.9,2686.77C2315.12,2686.77 2265.79,2637.43 2265.79,2576.66C2265.79,2515.89 2315.12,2466.55 2375.9,2466.55ZM2375.9,2472.02C2318.14,2472.02 2271.26,2518.91 2271.26,2576.66C2271.26,2634.41 2318.14,2681.3 2375.9,2681.3C2433.65,2681.3 2480.54,2634.41 2480.54,2576.66C2480.54,2518.91 2433.65,2472.02 2375.9,2472.02Z" style="fill:rgb(35,31,32);"/>
        </g>
        <g transform="matrix(-0.747249,-0.148637,0.148637,-0.747249,3455.86,6046.98)">
            <circle cx="2375.9" cy="2576.66" r="104.641" style="fill:rgb(147,149,152);"/>
            <path d="M2375.9,2466.55C2436.67,2466.55 2486.01,2515.89 2486.01,2576.66C2486.01,2637.43 2436.67,2686.77 2375.9,2686.77C2315.12,2686.77 2265.79,2637.43 2265.79,2576.66C2265.79,2515.89 2315.12,2466.55 2375.9,2466.55ZM2375.9,2472.02C2318.14,2472.02 2271.26,2518.91 2271.26,2576.66C2271.26,2634.41 2318.14,2681.3 2375.9,2681.3C2433.65,2681.3 2480.54,2634.41 2480.54,2576.66C2480.54,2518.91 2433.65,2472.02 2375.9,2472.02Z" style="fill:rgb(35,31,32);"/>
        </g>
        <g transform="matrix(-0.483337,-0.588948,0.588948,-0.483337,445.178,5664.41)">
            <circle cx="2375.9" cy="2576.66" r="104.641" style="fill:rgb(147,149,152);"/>
            <path d="M2375.9,2466.55C2436.67,2466.55 2486.01,2515.89 2486.01,2576.66C2486.01,2637.43 2436.67,2686.77 2375.9,2686.77C2315.12,2686.77 2265.79,2637.43 2265.79,2576.66C2265.79,2515.89 2315.12,2466.55 2375.9,2466.55ZM2375.9,2472.02C2318.14,2472.02 2271.26,2518.91 2271.26,2576.66C2271.26,2634.41 2318.14,2681.3 2375.9,2681.3C2433.65,2681.3 2480.54,2634.41 2480.54,2576.66C2480.54,2518.91 2433.65,2472.02 2375.9,2472.02Z" style="fill:rgb(35,31,32);"/>
        </g>
        <g transform="matrix(-0.75822,-0.0746781,0.0746781,-0.75822,3882.31,5930.65)">
            <circle cx="2375.9" cy="2576.66" r="104.641" style="fill:rgb(147,149,152);"/>
            <path d="M2375.9,2466.55C2436.67,2466.55 2486.01,2515.89 2486.01,2576.66C2486.01,2637.43 2436.67,2686.77 2375.9,2686.77C2315.12,2686.77 2265.79,2637.43 2265.79,2576.66C2265.79,2515.89 2315.12,2466.55 2375.9,2466.55ZM2375.9,2472.02C2318.14,2472.02 2271.26,2518.91 2271.26,2576.66C2271.26,2634.41 2318.14,2681.3 2375.9,2681.3C2433.65,2681.3 2480.54,2634.41 2480.54,2576.66C2480.54,2518.91 2433.65,2472.02 2375.9,2472.02Z" style="fill:rgb(35,31,32);"/>
        </g>
    </g>
</svg>
