<?xml version="1.0" encoding="UTF-8" standalone="no"?>
<!DOCTYPE svg PUBLIC "-//W3C//DTD SVG 1.1//EN" "http://www.w3.org/Graphics/SVG/1.1/DTD/svg11.dtd">
<svg width="100%" height="100%" viewBox="0 0 3780 4134" version="1.1" xmlns="http://www.w3.org/2000/svg" xmlns:xlink="http://www.w3.org/1999/xlink" xml:space="preserve" xmlns:serif="http://www.serif.com/" style="fill-rule:evenodd;clip-rule:evenodd;stroke-linecap:square;stroke-miterlimit:1.5;">
    <g transform="matrix(-0.953835,3.33067e-16,-3.33067e-16,-0.953835,6332.49,4956.43)">
        <g id="Top">
            <path d="M5842.4,4799.19C5812.8,4782.11 5774.91,4792.26 5757.82,4821.86C5757.82,4821.86 5275.77,4543.55 5275.77,4543.55C5275.77,4543.55 5244.81,4597.16 5244.81,4597.16C5274.41,4614.25 5284.56,4652.15 5267.48,4681.74C5250.39,4711.33 5212.49,4721.49 5182.9,4704.4L4968.43,4580.57C4938.83,4563.49 4928.68,4525.59 4945.76,4496C4962.85,4466.41 5000.75,4456.25 5030.34,4473.34L5061.3,4419.72L4579.24,4141.41C4596.33,4111.81 4586.18,4073.92 4556.58,4056.83L4502.96,4025.87L4781.57,3543.31L4162.44,2470.94L3481.39,2470.94L3481.39,2409.02C3481.39,2374.85 3509.14,2347.11 3543.31,2347.11L3543.31,1790.49L3605.22,1790.49C3605.22,1824.66 3632.96,1852.4 3667.13,1852.4C3701.31,1852.4 3729.05,1824.66 3729.05,1790.49L3729.05,1542.83C3729.05,1508.66 3701.31,1480.92 3667.13,1480.92C3632.96,1480.92 3605.22,1508.66 3605.22,1542.83L3543.31,1542.83L3543.31,986.207C3509.14,986.207 3481.39,958.465 3481.39,924.294L3481.39,862.38L5091.14,862.38L6638.98,3543.31L5896.01,4829.91L5842.4,4798.96" style="fill:rgb(212,198,145);stroke:black;stroke-width:4.37px;"/>
        </g>
    </g>
</svg>
